<?xml version="1.0" encoding="utf-8"?>
<svg version="1.1" xmlns:xlink="http://www.w3.org/1999/xlink" width="19px" height="17px" xmlns="http://www.w3.org/2000/svg">
  <g transform="matrix(1 0 0 1 -317 2 )">
    <path d="M 13.43359375 10.625  C 13.43359375 10.7209201388889  13.3982514880952 10.8057725694444  13.3275669642857 10.8795572916667  L 11.7795758928571 12.4954427083333  C 11.7088913690476 12.5692274305556  11.6276041666667 12.6061197916667  11.5357142857143 12.6061197916667  C 11.4438244047619 12.6061197916667  11.362537202381 12.5692274305556  11.2918526785714 12.4954427083333  L 9.5 10.625  L 7.70814732142857 12.4954427083333  C 7.63746279761905 12.5692274305556  7.5561755952381 12.6061197916667  7.46428571428571 12.6061197916667  C 7.37239583333333 12.6061197916667  7.29110863095238 12.5692274305556  7.22042410714286 12.4954427083333  L 5.67243303571429 10.8795572916667  C 5.60174851190476 10.8057725694444  5.56640625 10.7209201388889  5.56640625 10.625  C 5.56640625 10.5290798611111  5.60174851190476 10.4442274305556  5.67243303571429 10.3704427083333  L 7.46428571428571 8.5  L 5.67243303571429 6.62955729166667  C 5.60174851190476 6.55577256944444  5.56640625 6.47092013888889  5.56640625 6.375  C 5.56640625 6.27907986111111  5.60174851190476 6.19422743055556  5.67243303571429 6.12044270833333  L 7.22042410714286 4.50455729166667  C 7.29110863095238 4.43077256944444  7.37239583333333 4.39388020833333  7.46428571428571 4.39388020833333  C 7.5561755952381 4.39388020833333  7.63746279761905 4.43077256944444  7.70814732142857 4.50455729166667  L 9.5 6.375  L 11.2918526785714 4.50455729166667  C 11.362537202381 4.43077256944444  11.4438244047619 4.39388020833333  11.5357142857143 4.39388020833333  C 11.6276041666667 4.39388020833333  11.7088913690476 4.43077256944444  11.7795758928571 4.50455729166667  L 13.3275669642857 6.12044270833333  C 13.3982514880952 6.19422743055556  13.43359375 6.27907986111111  13.43359375 6.375  C 13.43359375 6.47092013888889  13.3982514880952 6.55577256944444  13.3275669642857 6.62955729166667  L 11.5357142857143 8.5  L 13.3275669642857 10.3704427083333  C 13.3982514880952 10.4442274305556  13.43359375 10.5290798611111  13.43359375 10.625  Z M 3 3  L 3 14  L 16 14  L 16 3  L 3 3  Z M 18.5016741071429 0.520182291666667  C 18.8338913690476 0.86697048611111  19 1.28385416666667  19 1.77083333333333  L 19 15.2291666666667  C 19 15.7161458333333  18.8338913690476 16.1330295138889  18.5016741071429 16.4798177083333  C 18.1694568452381 16.8266059027778  17.7700892857143 17  17.3035714285714 17  L 1.69642857142857 17  C 1.22991071428571 17  0.830543154761905 16.8266059027778  0.498325892857143 16.4798177083333  C 0.166108630952381 16.1330295138889  0 15.7161458333333  0 15.2291666666667  L 0 1.77083333333333  C 0 1.28385416666667  0.166108630952381 0.86697048611111  0.498325892857143 0.520182291666667  C 0.830543154761905 0.173394097222221  1.22991071428571 0  1.69642857142857 0  L 17.3035714285714 0  C 17.7700892857143 0  18.1694568452381 0.173394097222221  18.5016741071429 0.520182291666667  Z " fill-rule="nonzero" fill="#333333" stroke="none" fill-opacity="0.984313725490196" transform="matrix(1 0 0 1 317 -2 )" />
  </g>
</svg>