<?xml version="1.0" encoding="utf-8"?>
<svg version="1.1" xmlns:xlink="http://www.w3.org/1999/xlink" width="60px" height="51px" xmlns="http://www.w3.org/2000/svg">
  <g transform="matrix(1 0 0 1 -251 -557 )">
    <path d="M 51.3754646840149 29.1371784879189  C 51.4002478314746 29.1901792673422  51.4126394052045 29.269680436477  51 29.3756819953235  L 51 48.4559625876851  C 51.4126394052045 49.1449727201871  51.1771995043371 49.7412314886984  50.7063197026022 50.244738893219  C 50.2354399008674 50.7482462977397  49.6778190830236 51  49.0334572490706 51  L 34 51  L 34 35.7357755261107  L 26 35.7357755261107  L 26 51  L 10.9665427509294 51  C 10.3221809169765 51  9.76456009913259 50.7482462977397  9.29368029739777 50.244738893219  C 8.82280049566295 49.7412314886984  8.58736059479554 49.1449727201871  9 48.4559625876851  L 9 29.3756819953235  C 8.58736059479554 29.3491816056118  8.59355638166047 29.3094310210444  8.60594795539033 29.2564302416212  C 8.6183395291202 29.203429462198  8.62453531598513 29.1636788776306  8.62453531598513 29.1371784879189  L 30 10.2954014029618  L 51.3754646840149 29.1371784879189  Z M 59.9628252788104 25.6987529228371  C 59.9876084262701 26.0565081839439  59.9008674101611 26.3678877630553  59.7026022304833 26.6328916601715  L 57.3977695167286 29.5744349181606  C 57.1995043370508 29.8129384255651  56.9392812887237 29.958690568979  56.6171003717472 30.0116913484022  L 56.5055762081784 30.0116913484022  C 56.183395291202 30.0116913484022  55.9231722428749 29.9189399844115  55.724907063197 29.7334372564302  L 30 6.79734996102884  L 4.27509293680297 29.7334372564302  C 3.97769516728625 29.9454403741231  3.68029739776952 30.0381917381138  3.38289962825279 30.0116913484022  C 3.06071871127633 29.958690568979  2.80049566294919 29.8129384255651  2.60223048327138 29.5744349181606  L 0.297397769516729 26.6328916601715  C 0.0991325898389096 26.3678877630553  0.0123915737298638 26.0565081839439  0.0371747211895911 25.6987529228371  C 0.0619578686493186 25.3409976617303  0.198265179677819 25.0561184723305  0.446096654275093 24.8441153546376  L 27.1747211895911 1.03351519875292  C 27.9677819083024 0.344505066250969  28.909541511772 0  30 0  C 31.090458488228 0  32.0322180916977 0.344505066250969  32.8252788104089 1.03351519875292  L 41.8959107806691 9.14263445050662  L 41.8959107806691 1.3912704598597  C 41.8959107806691 1.02026500389711  42.0074349442379 0.71551052221356  42.2304832713755 0.477007014809044  C 42.453531598513 0.238503507404522  42.7385377942999 0.119251753702261  43.0855018587361 0.119251753702261  L 50.2230483271375 0.119251753702261  C 50.5700123915737 0.119251753702261  50.8550185873606 0.238503507404522  51.0780669144981 0.477007014809044  C 51.3011152416357 0.71551052221356  51.4126394052045 1.02026500389711  51 1.3912704598597  L 51 17.6095089633671  L 59.5539033457249 24.8441153546376  C 59.8017348203222 25.0561184723305  59.9380421313507 25.3409976617303  59.9628252788104 25.6987529228371  Z " fill-rule="nonzero" fill="#000000" stroke="none" transform="matrix(1 0 0 1 251 557 )" />
  </g>
</svg>